<?xml version="1.0" encoding="UTF-8" standalone="no"?>
<!-- Created with Inkscape (http://www.inkscape.org/) -->

<svg
   xmlns:osb="http://www.openswatchbook.org/uri/2009/osb"
   xmlns:dc="http://purl.org/dc/elements/1.1/"
   xmlns:cc="http://creativecommons.org/ns#"
   xmlns:rdf="http://www.w3.org/1999/02/22-rdf-syntax-ns#"
   xmlns:svg="http://www.w3.org/2000/svg"
   xmlns="http://www.w3.org/2000/svg"
   xmlns:xlink="http://www.w3.org/1999/xlink"
   xmlns:sodipodi="http://sodipodi.sourceforge.net/DTD/sodipodi-0.dtd"
   xmlns:inkscape="http://www.inkscape.org/namespaces/inkscape"
   sodipodi:docname="Expedition Icon.svg"
   width="210mm"
   height="297mm"
   viewBox="0 0 210 297"
   version="1.1"
   id="svg8"
   inkscape:version="0.92.4 (f8dce91, 2019-08-02)">
  <defs
     id="defs2">
    <linearGradient
       id="linearGradient4826"
       inkscape:collect="always">
      <stop
         id="stop4820"
         offset="0"
         style="stop-color:#0066cc;stop-opacity:1" />
      <stop
         style="stop-color:#0000ff;stop-opacity:1"
         offset="0.5"
         id="stop4822" />
      <stop
         id="stop4824"
         offset="1"
         style="stop-color:#44aaff;stop-opacity:1" />
    </linearGradient>
    <linearGradient
       id="linearGradient6299"
       inkscape:collect="always">
      <stop
         style="stop-color:#ffffff;stop-opacity:0;"
         offset="0"
         id="stop6297" />
      <stop
         style="stop-color:#ffffff;stop-opacity:0.6683417"
         offset="1"
         id="stop6295" />
    </linearGradient>
    <linearGradient
       inkscape:collect="always"
       id="linearGradient6277">
      <stop
         style="stop-color:#ffffff;stop-opacity:0.6683417"
         offset="0"
         id="stop6273" />
      <stop
         style="stop-color:#ffffff;stop-opacity:0;"
         offset="1"
         id="stop6275" />
    </linearGradient>
    <linearGradient
       id="linearGradient6155-9-2"
       inkscape:collect="always">
      <stop
         id="stop6159"
         offset="0"
         style="stop-color:#d7eef4;stop-opacity:1;" />
      <stop
         style="stop-color:#b7c4c8;stop-opacity:1"
         offset="0.92101663"
         id="stop6164" />
      <stop
         id="stop6166"
         offset="0.96187258"
         style="stop-color:#d7eef4;stop-opacity:1" />
      <stop
         id="stop6161"
         offset="1"
         style="stop-color:#b7c4c8;stop-opacity:1" />
    </linearGradient>
    <linearGradient
       id="linearGradient6085"
       osb:paint="solid">
      <stop
         style="stop-color:#000000;stop-opacity:1;"
         offset="0"
         id="stop6083" />
    </linearGradient>
    <radialGradient
       inkscape:collect="always"
       xlink:href="#linearGradient6155-9-2"
       id="radialGradient6157"
       cx="96.368484"
       cy="135.61963"
       fx="96.368484"
       fy="135.61963"
       r="40.443525"
       gradientTransform="matrix(0.97383203,0,0,0.96074784,2.9151886,4.9299246)"
       gradientUnits="userSpaceOnUse"
       spreadMethod="pad" />
    <radialGradient
       inkscape:collect="always"
       xlink:href="#linearGradient6155-9-2"
       id="radialGradient6346-3"
       gradientUnits="userSpaceOnUse"
       gradientTransform="matrix(0.97383202,0,0,0.96074784,11.202964,18.541152)"
       cx="96.368484"
       cy="135.61963"
       fx="96.368484"
       fy="135.61963"
       r="40.443523"
       spreadMethod="pad" />
    <radialGradient
       inkscape:collect="always"
       xlink:href="#linearGradient6299"
       id="radialGradient6293-5"
       cx="96.761902"
       cy="135.2262"
       fx="96.761902"
       fy="135.2262"
       r="36.579697"
       gradientTransform="matrix(1.8906943,7.8501684e-5,-7.8965228e-5,1.9018587,-77.773426,-108.46469)"
       gradientUnits="userSpaceOnUse" />
    <radialGradient
       inkscape:collect="always"
       xlink:href="#linearGradient6277"
       id="radialGradient6279-9"
       cx="81.169556"
       cy="107.86031"
       fx="81.169556"
       fy="107.86031"
       r="36.579697"
       gradientTransform="matrix(0.86965831,-0.37686194,0.21458319,0.49517881,-2.9784259,99.084968)"
       gradientUnits="userSpaceOnUse" />
    <linearGradient
       gradientTransform="matrix(0.26458333,0,0,-0.25967415,-0.08589305,197.8769)"
       inkscape:collect="always"
       xlink:href="#linearGradient4826"
       id="linearGradient7210-0"
       x1="199.36914"
       y1="330.09311"
       x2="199.36914"
       y2="420.56693"
       gradientUnits="userSpaceOnUse" />
  </defs>
  <sodipodi:namedview
     id="base"
     pagecolor="#ffffff"
     bordercolor="#666666"
     borderopacity="1.0"
     inkscape:pageopacity="0.0"
     inkscape:pageshadow="2"
     inkscape:zoom="0.59687176"
     inkscape:cx="318.666"
     inkscape:cy="533.86614"
     inkscape:document-units="mm"
     inkscape:current-layer="layer3"
     showgrid="false"
     showguides="true"
     inkscape:guide-bbox="true"
     inkscape:snap-object-midpoints="true"
     inkscape:snap-others="false"
     inkscape:window-width="1299"
     inkscape:window-height="713"
     inkscape:window-x="67"
     inkscape:window-y="27"
     inkscape:window-maximized="1"
     inkscape:snap-nodes="true"
     inkscape:snap-bbox="true"
     inkscape:snap-bbox-edge-midpoints="true"
     inkscape:object-nodes="false"
     inkscape:bbox-paths="false"
     inkscape:bbox-nodes="false" />
  <metadata
     id="metadata5">
    <rdf:RDF>
      <cc:Work
         rdf:about="">
        <dc:format>image/svg+xml</dc:format>
        <dc:type
           rdf:resource="http://purl.org/dc/dcmitype/StillImage" />
        <dc:title />
      </cc:Work>
    </rdf:RDF>
  </metadata>
  <g
     inkscape:groupmode="layer"
     id="layer2"
     inkscape:label="Folder"
     style="display:inline">
    <rect
       y="99.406364"
       x="30.306747"
       height="98.187271"
       width="149.38651"
       id="rect6467"
       style="fill:#0099dd;fill-opacity:1;fill-rule:nonzero;stroke-width:0.26458332"
       ry="2" />
    <path
       id="path7153-5"
       style="display:inline;fill:url(#linearGradient7210-0);fill-opacity:1;fill-rule:nonzero;stroke-width:0.21574302"
       d="m 30.224106,110.19751 2.64e-4,-9.68573 V 100.315 88.675305 h 33.829462 v -0.0046 h 0.200503 c 2.183813,-0.04159 2.617968,0.244202 3.781682,2.009431 l 6.254398,8.47441 c 0.186407,0.236482 0.354362,0.458195 0.478526,0.649178 l 0.05788,0.07812 -0.0067,0.0035 c 0.09504,0.153396 0.167095,0.295106 0.219622,0.431106 h 0.06356 c -0.0079,0.0321 -0.019,0.0651 -0.02946,0.0978 0.0104,0.0327 0.02159,0.0658 0.02946,0.0978 h -0.06408 c -0.05252,0.13581 -0.124177,0.27783 -0.219107,0.43104 l 0.0067,0.004 -0.05788,0.0781 c -0.124159,0.19102 -0.292111,0.41275 -0.478521,0.64923 l -6.254369,8.4744 c -1.163714,1.76524 -1.597869,2.05104 -3.781681,2.00943 h -0.200504 v -0.005 H 32.224107 c -1.99952,0 -2.000001,0.006 -2.000001,-1.95396 z"
       inkscape:connector-curvature="0"
       sodipodi:nodetypes="ccccccccccccccccccccccccccc" />
  </g>
  <g
     inkscape:label="Compass"
     inkscape:groupmode="layer"
     id="layer1"
     style="display:inline">
    <g
       inkscape:groupmode="layer"
       id="layer8"
       inkscape:label="Base"
       style="display:inline">
      <ellipse
         style="display:inline;fill:#f2f2f2;stroke-width:0.23277003"
         id="path56-7"
         cx="105.16308"
         cy="148.72403"
         rx="36.579697"
         ry="35.914597" />
      <path
         inkscape:connector-curvature="0"
         style="display:inline;fill:#44aaff;fill-opacity:1;fill-rule:nonzero;stroke-width:0.26458332"
         d="m 105.16282,119.91079 a 28.813421,28.813421 0 0 0 -28.813229,28.81323 28.813421,28.813421 0 0 0 28.813229,28.81323 28.813421,28.813421 0 0 0 28.81374,-28.81323 28.813421,28.813421 0 0 0 -28.81374,-28.81323 z m 0,2.09961 a 26.713505,26.713505 0 0 1 26.71361,26.71362 26.713505,26.713505 0 0 1 -26.71361,26.71361 26.713505,26.713505 0 0 1 -26.713099,-26.71361 26.713505,26.713505 0 0 1 26.713099,-26.71362 z"
         id="path6435-0" />
      <path
         inkscape:connector-curvature="0"
         style="display:inline;fill:#333333;fill-opacity:1;fill-rule:nonzero;stroke-width:0.18747857"
         d="m 105.16282,116.99418 -4.92321,22.92624 -10.974529,-7.09466 7.094657,10.97504 -22.926765,4.92322 22.926765,4.92321 -7.094657,10.97504 10.974529,-7.09466 4.92321,22.92625 4.92321,-22.92625 10.97504,7.09466 -7.09465,-10.97504 22.92676,-4.92321 -22.92676,-4.92322 7.09465,-10.97504 -10.97504,7.09466 z m 0,7.20318 4.33617,20.191 20.1905,4.33566 -20.1905,4.33565 -4.33617,20.19101 -4.33565,-20.19101 -20.19102,-4.33565 20.19102,-4.33566 z"
         id="path6422-9" />
      <path
         style="display:inline;fill:#0099dd;fill-opacity:1;fill-rule:nonzero;stroke-width:0.22724238"
         d="m 105.1011,173.11522 c -0.0143,-0.0621 -0.99162,-4.59822 -2.17124,-10.07938 -1.17956,-5.48119 -2.17647,-9.99014 -2.21537,-10.01992 -0.0391,-0.0302 -4.590086,-1.01603 -10.113706,-2.19167 -5.523619,-1.17569 -9.928198,-2.17767 -9.787947,-2.22672 0.140246,-0.049 4.639154,-1.03422 9.997579,-2.18921 5.358425,-1.15499 9.800444,-2.15788 9.871204,-2.22858 0.0703,-0.0705 1.07358,-4.51279 2.22858,-9.87123 1.15502,-5.35842 2.14018,-9.85868 2.18922,-10.00056 0.049,-0.14188 1.05347,4.26266 2.2321,9.78794 1.17862,5.52528 2.15805,10.07097 2.1765,10.10149 0.018,0.031 4.50889,1.02004 9.97874,2.1988 5.46986,1.17877 9.9831,2.1811 10.02946,2.22747 0.0464,0.0464 -4.43667,1.0564 -9.96229,2.24453 l -10.04649,2.16022 -2.09336,9.75939 c -2.11729,9.87109 -2.26523,10.53165 -2.31298,10.32743 z"
         id="path6433-3"
         inkscape:connector-curvature="0" />
      <ellipse
         ry="35.914597"
         rx="36.579697"
         cy="148.72403"
         cx="105.16308"
         id="ellipse6255-6"
         style="display:inline;fill:url(#radialGradient6279-9);fill-opacity:1;stroke-width:0.23277003" />
      <ellipse
         ry="35.914597"
         rx="36.579697"
         cy="148.72403"
         cx="105.16308"
         id="ellipse6285-0"
         style="display:inline;fill:url(#radialGradient6293-5);fill-opacity:1;stroke-width:0.23277003" />
      <path
         style="display:inline;fill:url(#radialGradient6346-3);fill-opacity:1.0;stroke-width:1"
         d="m 104.89849,109.60341 c -22.336359,-4e-5 -39.38523,16.51966 -39.385191,38.85601 -4.3e-5,22.33636 17.577996,39.38525 39.914361,39.38521 22.33636,4e-5 39.38524,-17.04885 39.3852,-39.38521 4e-5,-22.33635 -17.57801,-38.85605 -39.91437,-38.85601 z m 0.37776,4.15065 c 20.2024,1e-5 35.52134,14.49201 35.52134,34.32709 0,19.83508 -15.31894,35.38543 -35.52134,35.38544 -20.202409,-1e-5 -35.521352,-15.55036 -35.521351,-35.38544 -2e-6,-19.83508 15.318942,-34.32708 35.521351,-34.32709 z"
         id="path68-6"
         inkscape:connector-curvature="0"
         sodipodi:nodetypes="ccccccscsc" />
    </g>
    <g
       inkscape:groupmode="layer"
       id="layer7"
       inkscape:label="Rose"
       style="display:inline" />
    <g
       inkscape:groupmode="layer"
       id="layer9"
       inkscape:label="Text"
       style="display:none">
      <text
         xml:space="preserve"
         style="font-style:normal;font-weight:normal;font-size:10.58333302px;line-height:1.25;font-family:sans-serif;letter-spacing:0px;word-spacing:0px;fill:#d7f4e3;fill-opacity:1;stroke:none;stroke-width:0.26458332"
         x="101.03125"
         y="121.23813"
         id="text6445"><tspan
           sodipodi:role="line"
           id="tspan6443"
           x="101.03125"
           y="121.23813"
           style="fill:#d7f4e3;stroke-width:0.26458332">N</tspan></text>
      <text
         xml:space="preserve"
         style="font-style:normal;font-weight:normal;font-size:10.58333302px;line-height:1.25;font-family:sans-serif;letter-spacing:0px;word-spacing:0px;fill:#d7f4e3;fill-opacity:1;stroke:none;stroke-width:0.26458332"
         x="134.14311"
         y="152.34731"
         id="text6449"><tspan
           sodipodi:role="line"
           id="tspan6447"
           x="134.14311"
           y="152.34731"
           style="fill:#d7f4e3;stroke-width:0.26458332">E</tspan></text>
      <text
         xml:space="preserve"
         style="font-style:normal;font-weight:normal;font-size:10.58333302px;line-height:1.25;font-family:sans-serif;letter-spacing:0px;word-spacing:0px;fill:#d7f4e3;fill-opacity:1;stroke:none;stroke-width:0.26458332"
         x="101.34131"
         y="183.02625"
         id="text6453"><tspan
           sodipodi:role="line"
           id="tspan6451"
           x="101.34131"
           y="183.02625"
           style="fill:#d7f4e3;stroke-width:0.26458332">S</tspan></text>
      <text
         xml:space="preserve"
         style="font-style:normal;font-weight:normal;font-size:10.58333302px;line-height:1.25;font-family:sans-serif;letter-spacing:0px;word-spacing:0px;fill:#d7f4e3;fill-opacity:1;stroke:none;stroke-width:0.26458332"
         x="69.116188"
         y="152.34731"
         id="text6457"><tspan
           sodipodi:role="line"
           x="69.116188"
           y="152.34731"
           style="fill:#d7f4e3;stroke-width:0.26458332"
           id="tspan6459">W</tspan></text>
    </g>
    <g
       inkscape:groupmode="layer"
       id="layer5"
       inkscape:label="Shine"
       style="display:inline" />
    <g
       inkscape:groupmode="layer"
       id="layer6"
       inkscape:label="Rim"
       style="display:inline" />
  </g>
  <g
     inkscape:groupmode="layer"
     id="layer3"
     inkscape:label="Ouroboros"
     style="display:inline">
    <rect
       style="fill:#ffffff;fill-opacity:1;fill-rule:nonzero;stroke-width:0.26458332"
       id="rect7159"
       width="9.9184656"
       height="3.6570878"
       x="124.67345"
       y="96.691315"
       rx="2.109425e-15"
       ry="4.107815e-15" />
    <path
       style="fill:#333333;stroke-width:0.17545405;fill-opacity:1"
       d="m 90.409262,205.75772 c -6.604597,-4.16276 -8.201016,-5.21104 -10.024618,-6.58259 -2.63953,-1.98522 -5.360233,-4.59244 -7.635112,-7.31664 -0.998617,-1.19586 -1.81567,-2.22288 -1.81567,-2.28227 0,-0.0594 1.283008,-0.11423 2.851127,-0.12187 1.754098,-0.009 3.542662,-0.12617 4.648383,-0.3057 0.988483,-0.16048 1.836645,-0.29177 1.884795,-0.29177 0.04818,0 0.03643,-1.06589 -0.02605,-2.36863 -0.06248,-1.30275 -0.06709,-2.36864 -0.01026,-2.36864 0.05682,0 0.672119,0.42788 1.367271,0.95082 1.566094,1.17815 4.466583,2.69867 6.859328,3.59587 2.214364,0.8303 5.593061,1.75106 6.849442,1.8666 0.510976,0.047 1.994926,0.21219 3.297676,0.36712 2.655616,0.31581 8.836966,0.38151 10.307896,0.10955 0.50662,-0.0937 0.92065,-0.12288 0.92005,-0.0649 -5.9e-4,0.0579 -1.10546,1.52656 -2.45526,3.26356 -1.34981,1.73699 -2.45468,3.20946 -2.45528,3.27216 -0.002,0.18521 1.79374,1.77092 3.22446,2.84771 1.95834,1.47389 4.97913,3.35112 7.56452,4.70086 1.37047,0.71548 2.11955,1.19235 1.87621,1.19442 -0.56468,0.005 -9.61153,-1.49474 -12.29568,-2.03805 -5.455167,-1.10421 -10.164645,-2.57918 -14.729659,-4.61322 l -1.939168,-0.86403 0.536292,1.51941 c 0.294954,0.83569 1.1202,2.68531 1.833879,4.11029 0.713679,1.42498 1.277363,2.58867 1.252638,2.58598 -0.02474,-0.002 -0.873987,-0.5274 -1.887232,-1.16603 z m 1.318245,-7.7689 c 2.098948,-0.41712 4.028587,-1.21041 5.766637,-2.37075 1.65935,-1.1078 2.129529,-1.46939 2.025919,-1.55809 -0.0412,-0.0352 -0.923459,-0.78833 -1.960559,-1.67348 l -1.88566,-1.60935 -3.968121,1.27505 -3.96812,1.27504 0.116119,1.14231 c 0.121658,1.19673 0.592904,3.66707 0.747138,3.91663 0.0984,0.1592 0.729706,0.079 3.126647,-0.39736 z m 16.227123,2.06336 c 0,-0.0459 0.41451,-0.3697 0.92114,-0.71965 1.00035,-0.691 2.76514,-2.43388 4.56689,-4.51022 l 1.14189,-1.3159 -2.29014,-1.15569 -2.29013,-1.15569 2.00176,-0.30581 c 4.13442,-0.6316 9.6675,-2.31282 12.83764,-3.90071 1.39659,-0.69953 4.61961,-2.8474 6.35862,-4.23746 2.81103,-2.24698 3.53586,-2.96264 6.55785,-6.47487 2.06935,-2.40504 5.08496,-7.18624 6.92081,-10.97283 0.59622,-1.22972 1.12638,-2.23639 1.17816,-2.23704 0.0518,-6.2e-4 0.40092,1.1634 0.77586,2.58677 0.37494,1.42337 0.75202,2.84895 0.83794,3.16796 l 0.15623,0.58001 1.67192,-0.89333 c 2.02367,-1.08127 4.01665,-2.40831 7.56138,-5.03478 1.47162,-1.0904 2.67568,-1.93853 2.67568,-1.88475 0,0.0538 -0.22652,0.42786 -0.50337,0.83124 -0.27686,0.40339 -1.54034,2.57301 -2.80776,4.82138 -3.35523,5.95215 -4.91854,8.13648 -8.23257,11.50294 -1.71703,1.74419 -4.12271,3.97223 -4.28893,3.97223 -0.0494,0 -0.0937,-0.80928 -0.0985,-1.7984 -0.009,-1.93811 -0.41977,-3.91006 -1.08538,-5.21476 -0.42495,-0.83298 -0.22001,-0.85055 -2.80981,0.24086 l -1.84227,0.77638 -0.15135,3.44608 c -0.0833,1.89534 -0.11226,3.48516 -0.0645,3.53294 0.15774,0.15773 3.6578,-0.27578 5.28505,-0.6546 0.87893,-0.20461 3.36922,-0.91363 5.53398,-1.5756 2.16477,-0.66196 3.96267,-1.17684 3.99533,-1.14417 0.0726,0.0726 -10.53716,7.10143 -12.49307,8.27654 -3.71606,2.23263 -7.20998,3.85863 -11.113,5.17178 -1.38366,0.46552 -2.54944,0.8801 -2.59062,0.92128 -0.11319,0.11318 4.53662,1.61843 6.33455,2.05064 1.90523,0.458 2.09255,0.51738 1.98176,0.62817 -0.15096,0.15096 -5.7529,1.27108 -8.21038,1.64169 -4.39881,0.66336 -7.61066,0.91428 -13.02746,1.01772 -2.96737,0.0566 -5.39522,0.0655 -5.39522,0.0197 z m 20.53998,-8.40548 c 0.3965,-0.58389 0.90008,-1.4702 1.11906,-1.96958 0.39936,-0.91072 0.89421,-2.71705 0.77499,-2.82887 -0.035,-0.0328 -1.12982,-0.0181 -2.43294,0.0327 l -2.36931,0.0924 -1.63665,2.74017 c -0.90015,1.5071 -1.64721,2.81912 -1.66012,2.91562 -0.0129,0.0965 0.80284,0.59518 1.81278,1.10817 l 1.83625,0.93271 0.91751,-0.98086 c 0.50462,-0.53947 1.24191,-1.45857 1.63843,-2.04246 z m -61.102446,3.65834 c -4.32641,-7.61569 -6.166705,-11.84063 -8.045059,-18.46984 -0.400069,-1.41193 -0.6932,-2.60133 -0.651411,-2.64312 0.04178,-0.0418 1.055744,0.39056 2.253226,0.96079 2.694804,1.28323 4.734841,1.93355 6.490169,2.06891 l 1.34798,0.10394 0.127906,-1.78706 c 0.07035,-0.9829 0.191157,-1.76369 0.268464,-1.7351 0.07731,0.0286 0.794796,0.88101 1.594429,1.89426 2.789425,3.53461 5.944085,6.50878 8.095398,7.63225 0.554352,0.2895 1.008109,0.57332 1.008333,0.63071 1.81e-4,0.0574 -1.558925,0.20206 -3.464795,0.32147 -1.90587,0.11942 -3.593559,0.25231 -3.750429,0.29531 -0.403849,0.11073 -1.291301,1.8791 -1.619235,3.22658 -0.356072,1.46309 -0.728351,4.43222 -1.000961,7.98317 -0.118537,1.54399 -0.265156,2.94553 -0.325826,3.11453 -0.07834,0.21823 -0.753088,-0.82419 -2.328189,-3.5968 z m -15.208932,-12.4233 c -0.618132,-5.39874 -0.754424,-8.1872 -0.668433,-13.67572 0.08694,-5.54924 0.329053,-8.28771 1.078094,-12.19406 0.14803,-0.772 0.269159,-1.46373 0.269172,-1.53718 5.6e-5,-0.22258 -2.251435,1.48697 -5.198208,3.94698 -4.512941,3.76747 -4.637446,3.86704 -4.72539,3.7791 -0.166923,-0.16693 1.729274,-7.3151 2.805297,-10.57525 1.738542,-5.26745 3.81724,-9.88077 6.739637,-14.95745 0.766255,-1.33112 1.145944,-2.14932 0.997404,-2.14932 -0.513165,0 -3.445547,1.13568 -5.620961,2.17694 -1.255497,0.60095 -3.481057,1.81763 -4.945685,2.70374 -1.464634,0.88612 -2.709128,1.61112 -2.765534,1.61112 -0.05639,0 0.350029,-0.65137 0.903207,-1.44749 6.077666,-8.74689 13.160718,-17.07859 18.126609,-21.32207 1.963849,-1.67815 1.860394,-1.68601 1.888861,0.14358 0.02835,1.82317 0.263135,3.31088 0.774069,4.90512 0.372198,1.16137 1.499081,3.63362 1.717884,3.76884 0.0663,0.041 1.001098,-0.51392 2.077344,-1.23308 1.076241,-0.71917 1.998539,-1.30758 2.049549,-1.30758 0.05104,0 -0.297341,0.77733 -0.774101,1.72739 -1.796248,3.57944 -4.09319,9.71222 -4.757979,12.7037 -0.123312,0.55488 -0.270851,1.00496 -0.327872,1.00018 -0.05701,-0.005 -0.791141,-1.42594 -1.631389,-3.15817 -1.452579,-2.99458 -1.552453,-3.14948 -2.030668,-3.14948 -0.791682,0 -3.792555,0.54267 -3.978172,0.71941 -0.243186,0.23155 0.659262,2.9039 1.662834,4.92402 1.019592,2.05239 3.197015,5.28688 3.393033,5.04025 0.03003,-0.0378 0.600482,-0.91691 1.267652,-1.95358 0.667171,-1.03668 1.25576,-1.88544 1.307975,-1.88613 0.05222,-6.2e-4 -0.0082,0.76853 -0.134278,1.70941 -0.126066,0.94087 -0.232331,3.26667 -0.236148,5.16844 -0.01075,5.35597 0.40981,8.48648 1.680415,12.50855 1.691531,5.3545 3.28928,8.89583 5.098727,11.3011 0.514657,0.68412 0.866153,1.24386 0.7811,1.24386 -0.08505,0 -1.865267,-0.66568 -3.956034,-1.47928 l -3.801389,-1.47929 -0.80166,0.73361 c -2.077866,1.90149 -4.469305,5.85141 -7.608578,12.56706 l -0.446565,0.95529 z m 9.580018,-22.37252 0.40843,-2.26908 -2.505482,-2.40837 c -1.378014,-1.3246 -2.641394,-2.41023 -2.807516,-2.41249 -0.400056,-0.006 -1.946273,0.68668 -2.996664,1.34142 l -0.842349,0.52506 1.733762,2.09237 c 0.953569,1.1508 2.250689,2.5656 2.882485,3.14401 1.162463,1.06421 3.237842,2.41652 3.549295,2.31271 0.09328,-0.0311 0.353398,-1.07763 0.578039,-2.32563 z m 91.9558,4.74554 c -0.0548,-0.0946 -0.23112,-0.57498 -0.39183,-1.06761 -0.37856,-1.16043 -1.12671,-2.32789 -2.25909,-3.52521 -1.45087,-1.53409 -1.30759,-1.55103 -3.30909,0.39114 -0.96316,0.93461 -1.78312,1.66737 -1.82213,1.62837 -0.039,-0.039 0.19655,-1.1517 0.52345,-2.47264 0.9158,-3.70058 1.47969,-7.45297 1.50869,-10.03956 0.0233,-2.07816 -0.0294,-2.08035 2.52206,0.10534 l 2.26711,1.94214 0.58807,-0.67283 c 2.06856,-2.36668 2.52664,-3.00768 6.36227,-8.90291 0.72099,-1.10812 1.33184,-1.99382 1.35746,-1.9682 0.0256,0.0256 -0.46006,2.60705 -1.07927,5.73652 -1.20885,6.10943 -1.90246,8.7724 -3.21368,12.33823 -0.96039,2.61177 -2.90737,6.76023 -3.05402,6.50722 z m -5.82851,-18.94549 c -0.25171,-3.53108 -0.95559,-7.37975 -2.01354,-11.00975 -0.27422,-0.94087 -0.45001,-1.71068 -0.39065,-1.71068 0.0594,0 1.25169,0.46912 2.64964,1.04249 1.39794,0.57337 2.59907,0.98579 2.66917,0.91648 0.30018,-0.29672 1.5749,-4.66116 2.58698,-8.85741 0.6009,-2.49141 1.13021,-4.49216 1.17624,-4.44612 0.0916,0.0916 0.74166,4.84864 1.28759,9.4224 0.62899,5.26968 0.77917,10.66186 0.41421,14.87302 l -0.096,1.1077 -0.90598,-0.85286 c -0.49829,-0.46908 -1.26127,-1.09294 -1.69552,-1.38635 -1.13747,-0.76857 -3.29454,-1.91603 -3.40125,-1.80932 -0.05,0.05 -0.55556,1.07511 -1.1234,2.27795 l -1.03242,2.18698 z m -3.32397,-14.77709 c -0.802,-1.93488 -2.5909,-5.0889 -4.51679,-7.96355 l -1.42944,-2.13361 2.87051,0.0676 2.8705,0.0676 -0.0173,-2.63182 c -0.0144,-2.17946 -0.11395,-3.14034 -0.57956,-5.59056 -0.30924,-1.62732 -0.52686,-2.99417 -0.48358,-3.03745 0.0433,-0.0433 0.50674,0.73549 1.02991,1.73059 0.52318,0.99509 1.69072,3.15148 2.59455,4.79198 0.90383,1.64049 2.06989,3.93017 2.59126,5.08816 0.878,1.95011 2.48902,6.4808 2.75013,7.73422 l 0.11262,0.54059 -1.19175,-0.57961 c -1.33128,-0.64747 -3.14417,-1.11567 -4.31998,-1.11567 h -0.77805 l -0.30191,1.71068 c -0.58002,3.2864 -0.44702,3.14015 -1.20112,1.32082 z m -76.615428,-6.50144 c 0,-0.19175 0.164237,-1.74649 0.364968,-3.45498 0.20073,-1.70848 0.320132,-3.15116 0.26533,-3.20596 -0.238386,-0.23839 -2.657515,-0.57932 -4.841193,-0.68228 -3.589163,-0.16923 -7.766388,0.31531 -12.983596,1.50604 l -2.193175,0.50055 1.950027,-1.87079 c 4.291024,-4.11668 9.472044,-7.61534 16.472643,-11.12372 2.930237,-1.4685 9.278755,-4.34157 9.59341,-4.34157 0.104356,0 0.12798,0.13082 0.05545,0.30704 -1.139746,2.76866 -1.66238,5.32333 -1.664444,8.13601 l -0.0012,1.68808 0.833409,0.10209 c 0.458377,0.0562 1.543999,0.15173 2.412496,0.2124 l 1.579086,0.11031 1.62544,-3.39183 c 0.893993,-1.86551 1.62432,-3.48848 1.622946,-3.60659 -0.0037,-0.30673 -2.2064,-1.81252 -4.02769,-2.75318 -3.048096,-1.57428 -6.341952,-2.44267 -13.486727,-3.555662 -2.603895,-0.40562 -4.141508,-0.71523 -3.947716,-0.79489 1.048718,-0.43111 10.189322,-1.98502 14.441484,-2.45507 3.127691,-0.34574 12.68306,-0.29008 16.727547,0.0974 1.817921,0.17419 3.339097,0.28292 3.380397,0.24162 0.1093,-0.1093 -2.771696,-1.35271 -5.992802,-2.58643 -1.539099,-0.58949 -2.854049,-1.12662 -2.922124,-1.19364 -0.140589,-0.1384 1.244432,-0.10494 6.264658,0.15136 5.810778,0.29666 10.107314,0.86458 14.036294,1.85535 1.73298,0.437 6.10589,1.8143 7.13726,2.24796 l 0.5317,0.22356 -1.22363,0.81347 c -1.25814,0.83641 -3.03875,2.605992 -4.01652,3.991632 l -0.55391,0.78498 1.78209,0.94754 c 3.12263,1.66032 3.38621,1.49561 -2.41062,1.50636 -5.56025,0.0103 -7.4485,0.18451 -12.169886,1.12271 -5.644109,1.12155 -12.156678,3.62729 -16.184106,6.22692 -3.64271,2.3513 -8.572338,7.17094 -11.469538,11.21361 -0.640146,0.89324 -0.9877,1.25553 -0.9877,1.02956 z m 31.578211,-21.3692 c 1.256477,-1.68659 1.743857,-2.47546 1.671067,-2.70479 -0.24067,-0.75827 -3.411336,-3.532592 -4.526216,-3.960412 -0.4006,-0.15372 -1.768873,1.82004 -3.169566,4.572152 -0.687593,1.35099 -1.273577,2.54057 -1.302174,2.64351 -0.04824,0.1737 4.59773,1.77662 5.25741,1.81387 0.18516,0.0105 0.9585,-0.87307 2.069479,-2.36433 z m 37.807227,15.75138 c -1.64562,-2.29372 -6.2316,-6.87054 -9.24859,-9.23012 -1.32687,-1.03774 -2.41249,-1.92349 -2.41249,-1.96832 0,-0.0448 0.31345,-0.49669 0.69656,-1.00412 l 0.69656,-0.92259 2.41775,0.22029 c 1.32976,0.12116 3.0099,0.22465 3.73365,0.22999 1.30642,0.01 1.3246,0.0162 2.52312,0.9164 0.66396,0.49869 1.69037,1.47619 2.2809,2.17221 l 1.07369,1.26551 0.0877,-1.60367 0.0877,-1.60367 0.72258,1.22818 c 1.75731,2.98694 4.10655,7.16023 4.05799,7.20879 -0.0292,0.0292 -0.36676,-0.0196 -0.75005,-0.10841 -1.08528,-0.25162 -3.39633,-0.1724 -4.55687,0.15622 -1.20634,0.34158 -1.15948,0.0847 -0.51359,2.81443 0.23747,1.00359 0.40772,1.84874 0.37834,1.87812 -0.0294,0.0294 -0.60313,-0.71277 -1.275,-1.64924 z m -8.01042,0.53875 c -0.59458,-0.0626 -1.0202,-0.4685 -5.16652,-4.92708 -5.81955,-6.25782 -6.99942,-7.41743 -8.6301,-8.48194 -0.73829,-0.48197 -1.37443,-0.90838 -1.41363,-0.94759 -0.0392,-0.0392 0.4736,-0.57577 1.13959,-1.19236 0.66597,-0.61659 1.70144,-1.71415 2.30102,-2.43902 l 1.09017,-1.31794 -1.7821,-1.994982 c -3.60353,-4.03401 -5.74991,-5.94024 -8.55487,-7.59775 -0.90913,-0.53722 -1.53154,-0.97677 -1.38311,-0.97677 0.88808,0 6.30818,0.60561 10.06391,1.12448 2.41249,0.33329 4.89955,0.65823 5.5268,0.72209 0.62725,0.0639 2.43372,0.43695 4.01439,0.82909 2.86731,0.71134 2.87734,0.71555 4.35632,1.83103 2.26005,1.70456 5.43249,3.17286 10.31515,4.77415 l 4.2109,1.380992 -0.0314,1.32453 c -0.0311,1.31081 -0.0425,1.34104 -1.10111,2.91543 -0.93334,1.38807 -1.1341,1.5909 -1.5748,1.5909 -0.42831,0 -0.58663,0.14448 -1.04153,0.95051 -0.68296,1.21015 -0.94157,1.3842 -0.89805,0.60442 0.0181,-0.32446 0.0249,-0.80706 0.0152,-1.07244 l -0.0178,-0.48249 -2.23704,-8.1e-4 c -3.56257,-10e-4 -9.32612,-0.41108 -11.29511,-0.80307 -0.39521,-0.0787 -0.554,0.0352 -1.11531,0.79985 -0.35997,0.49037 -0.75793,1.23531 -0.88437,1.65541 -0.21077,0.70034 -0.19657,0.8348 0.17084,1.61781 0.72896,1.55352 4.96455,7.0826 5.42568,7.0826 0.12219,0 0.5522,-0.28249 0.95557,-0.62776 0.88778,-0.75991 0.967,-0.49552 0.28835,0.96236 l -0.44162,0.94869 0.37791,0.40227 0.37792,0.40227 -0.53518,0.53517 c -0.554,0.554 -0.78491,0.59129 -2.52603,0.40796 z m 2.28777,-20.157152 c 0.5456,-0.15543 1.05354,-0.33935 1.12875,-0.4087 0.0752,-0.0694 -0.31956,-0.48108 -0.87727,-0.91496 l -1.01402,-0.78886 -2.70572,-0.38072 c -1.48814,-0.2094 -2.73392,-0.35252 -2.7684,-0.31804 -0.0345,0.0345 0.73867,0.40915 1.71811,0.83261 1.42196,0.61477 1.90452,0.92017 2.39477,1.5156 0.69232,0.840832 0.75204,0.853862 2.12378,0.46307 z"
       id="path4623"
       inkscape:connector-curvature="0" />
  </g>
</svg>
